<svg width="64" height="64" viewBox="0 0 64 64" fill="none" xmlns="http://www.w3.org/2000/svg">
<path d="M26 0C23.7875 0 22 1.7875 22 4C22 6.2125 23.7875 8 26 8H28V12.3C15.5375 14.225 6 25 6 38C6 52.3625 17.6375 64 32 64C46.3625 64 58 52.3625 58 38C58 32.775 56.4625 27.9125 53.8125 23.85L56.825 20.8375C58.3875 19.275 58.3875 16.7375 56.825 15.175C55.2625 13.6125 52.725 13.6125 51.1625 15.175L48.4625 17.875C44.95 15 40.6875 13.025 36 12.3V8H38C40.2125 8 42 6.2125 42 4C42 1.7875 40.2125 0 38 0H32H26ZM35 24V40C35 41.6625 33.6625 43 32 43C30.3375 43 29 41.6625 29 40V24C29 22.3375 30.3375 21 32 21C33.6625 21 35 22.3375 35 24Z" fill="white"/>
</svg>
